<?xml version="1.0" encoding="UTF-8"?>
<svg version="1.1" viewBox="0 0 2048 1518" width="580" height="430" xmlns="http://www.w3.org/2000/svg">
<path transform="translate(1087,121)" d="m0 0h23l14 4 18 10 24 14 16 9 24 14 25 14 24 14 25 14 24 14 18 10 17 10 21 12 26 15 11 7 9 8 9 13 5 12 2 8v321l-4 13-6 12-11 12-10 7-260 150-11 5-12 3h-20l-11-3-16-8-23-13-234-135-33-17-21-9-19-5-6-1h-22l-15 4-11 6-9 7-10 9-11 11-7 8h-1l-1-8v-32l3-15 4-12 7-14 10-13 11-10 12-7 17-6 13-2h22l19 3 25 9 16 8 17 9 17 11 20 13 11 7 23 15 34 21 24 13 21 11 19 8 19 7 22 6 14 2 13 1h25l25-5 19-7 19-10 16-11 13-10 4-5-12 6-20 7-18 4h-37l-18-4-21-8-15-8-10-8-9-9-7-11-4-11-1-9 3-14 5-12 7-9 11-7 8-3 6-1h30l39 5 22 3 15 1h18l24-3 24-5 23-8 21-10 11-7 12-9 11-11 7-10 9-16 6-18 2-12v-34l-3-19v-6h-2l-2 5-11 16-9 11-12 13-16 13-10 6-13 6-18 6-20 4-8 1h-44l-27-4-28-6-43-13-20-7-37-15-45-19-24-11-30-13-29-9-20-4-15-2h-33l-20 3-20 5-16 6-16 8-12 7-13 10-14 12-9 11-1 2-3-1-1-8v-20l3-19 5-17 8-16 6-11 12-16 10-11 5-6h2l1-3 8-7 15-12 18-13 26-16 24-13 24-14 25-14 17-10 23-13 24-14 23-13 49-28 43-25 18-10 14-8zm68 195-15 4-12 6-11 9-8 10-7 14-3 10-1 7v9l3 16 5 12 7 10 8 9 11 7 14 6 8 2 12 1 14-2 15-6 11-7 10-10 7-10 5-12 2-9v-19l-3-13-8-16-9-11-13-9-8-4-15-4z" fill="#7E5E3B"/>
<path transform="translate(1087,121)" d="m0 0h23l14 4 18 10 24 14 16 9 24 14 25 14 24 14 25 14 24 14 18 10 34 20 2 4-3 12-6 15-2 2-4 10-2 4h-2l-2 6-8 12h-2l-1 4h-2l-2 5-4 2-2 4-4 2-2 4-13 10-22 14-21 9-18 6-5-1-5-22-8-16-8-10-13-9-8-4-15-4h-19l-15 4-12 6-11 9-8 11-6 12-3 10-2 13-2 1-6-2-27-3-16-3-13-3-30-7-19-6-17-4-24-7-23-6-16-4-31-5-23-2h-25l-25 4-16 4-7 3-13 4-5 3-7 3-6 4-8 6h-2v2l-8 6-5 4-2 3h-2l-2 4-7 8-1 3-3 3-1 2h-2l-1 4-3 3-2 6h-2l-1 4-7 13-3 10-4 10-1 5-4 3h-2l-1 2-3-3v-20l3-19 5-17 8-16 6-11 12-16 10-11 5-6h2l1-3 8-7 15-12 18-13 26-16 24-13 24-14 25-14 17-10 23-13 24-14 23-13 49-28 43-25 18-10 14-8z" fill="#5F492D"/>
<path transform="translate(1346,578)" d="m0 0h28l26 5 9 2 6 2 6 1v-7h1v63l-4 13-6 12-11 12-10 7-260 150-11 5-12 3h-20l-11-3-16-8-23-13-234-135-33-17-21-9-19-5-6-1h-22l-15 4-11 6-9 7-10 9-11 11-7 8h-1l-1-8v-32l3-15 4-12 7-14 10-13 11-10 12-7 17-6 13-2h22l19 3 25 9 16 8 17 9 17 11 20 13 11 7 23 15 34 21 24 13 21 11 19 8 19 7 22 6 14 2 13 1h25l25-5 19-7 19-10 16-11 13-10 6-7 5-5h2v-2l4-3h2v-2l3-2h3l2-4h2v-2l12-9 5-4h2v-2l9-6 22-16 20-12 16-8 13-6 19-7 15-4z" fill="#A47C4E"/>
<path transform="translate(243,931)" d="m0 0h28l10 17 14 23 3 5 2 1 2-5 13-22 11-18 1-1h28v109h-27l-1-5v-45l1-6-5 5-15 25-7 10-5-1-8-11-10-17-6-10-1-1-1 56h-27z" fill="#B5931D"/>
<path transform="translate(1e3 931)" d="m0 0h28l13 21 20 30 2 1-1-4v-48h28v109l-4 1-19-1-8-11-12-19-10-15-9-14-1 59-26 1-1-1-1-71z" fill="#B5931D"/>
<path transform="translate(1477,929)" d="m0 0h17l11 3 12 6 10 9 6 7 6 12 3 11v18l-3 12-6 11-9 11-13 9-11 4-13 2-14-1-13-5-11-7-10-10-6-10-4-11-1-5v-18l4-13 5-10 9-10 7-6 12-6zm6 27-10 3-9 6-6 8-3 11 1 9 4 9 7 8 10 5 10 1 9-2 8-5 7-8 3-8v-14l-6-12-8-7-8-3z" fill="#B5931D"/>
<path transform="translate(927,929)" d="m0 0h16l11 3 14 7 8 7 6 8 6 12 3 11v18l-4 14-5 9-9 11-13 9-11 4-12 2-15-1-13-5-11-7-9-9-6-10-4-9-2-9v-15l4-15 6-11 11-12 10-6 9-4zm0 28-10 5-5 5-4 5-3 8-1 8 3 11 7 9 9 6 8 2h7l10-3 8-6 5-7 3-11-1-11-5-10-9-8-8-3z" fill="#B5931D"/>
<path transform="translate(1336,931)" d="m0 0h56l11 4 9 7 7 12 2 6v14l-4 11-7 9-4 3 2 6 15 28 4 7v2h-31l-10-17-9-17-1-1-12-1v36h-27l-1-8zm29 25-1 1v21l1 1h18l7-2 4-5 1-2v-6l-4-6-13-2z" fill="#B5931D"/>
<path transform="translate(693,931)" d="m0 0h56l12 5 8 7 6 10 3 11v7l-4 13-6 8-6 7 12 22 10 18-3 2h-26l-5-5-10-18-7-13h-12v35h-28zm28 25-1 3v15l1 5h20l5-2 5-6v-8l-4-5-2-1-12-1z" fill="#B5931D"/>
<path transform="translate(1139,931)" d="m0 0h30l15 41 17 46 7 19v3l-3 1h-24l-3-2-5-16v-2l-38 1-4 12-3 6-4 1-24-1 2-9 8-23 9-24 19-52zm13 41-7 20v3h17l-1-6-6-16z" fill="#B5931D"/>
<path transform="translate(1553,931)" d="m0 0h27l1 1v73l2 5 6 4 4 1h8l8-3 3-4 1-77h28v77l-2 10-5 8-7 8-10 6-10 3-12 1-13-2-10-4-9-7-7-11-3-9z" fill="#B5931D"/>
<path transform="translate(823,928)" d="m0 0h17l13 4 8 6 8 9 2 3-1 4-20 12h-3l-4-6-4-3-3-1h-7l-5 2-1 5 4 4 15 6 12 5 10 6 6 8 4 9 1 12-3 10-6 9-9 7-12 4h-23l-12-4-12-9-8-12 1-3 18-11 3-2 10 11 5 2h12l7-4-1-7-8-4-20-7-10-6-8-8-4-9-1-10 2-10 5-9 7-7 11-5z" fill="#B5931D"/>
<path transform="translate(610,931)" d="m0 0h69l1 1v14l-1 10-4 1h-37l-1 13h38v25l-5 1h-32v18l41 1 1 1v24l-67 1-3-1-1-34v-74z" fill="#B5931D"/>
<path transform="translate(1740,931)" d="m0 0h70v25l-5 1h-36l-1 12 37 1 1 1v24l-7 1h-22l-9-1v20h42v25l-62 1-8-1z" fill="#B5931D"/>
<path transform="translate(520,931)" d="m0 0h50l11 4 10 8 6 10 3 9v11l-4 11-6 8-8 7-5 3-9 2h-21v36h-27zm28 25-1 1v19l2 3h14l5-2 4-4 1-9-4-6-9-2z" fill="#B5931D"/>
<path transform="translate(365,931)" d="m0 0h31l6 10 14 27h3l13-25 7-12h31l-1 4-15 28-21 39-1 6-1 32h-27l-1-2v-33l-4-10-12-21-17-32-5-8z" fill="#B5931D"/>
<path transform="translate(1650,931)" d="m0 0h83l1 1v14l-1 10h-27v84h-28v-84h-28z" fill="#B5931D"/>
<path transform="translate(1215,931)" d="m0 0h27v84h43v25l-69 1-1-1z" fill="#B5931D"/>
</svg>